<?xml version="1.0" encoding="UTF-8"?>
<svg id="Layer_2" data-name="Layer 2" xmlns="http://www.w3.org/2000/svg" viewBox="0 0 488.17 82.18">
  <defs>
    <style>
      .cls-1 {
        fill: #011b33;
      }
    </style>
  </defs>
  <g id="Layer_1-2" data-name="Layer 1">
    <g>
      <path class="cls-1" d="M23.54,71.24c3.29,0,5.83-.88,7.63-2.65,1.79-1.76,2.69-4.12,2.69-7.05v-5.03c-1,1.59-2.6,2.9-4.81,3.92s-4.66,1.54-7.36,1.54c-6.06,0-11.19-2.03-15.39-6.08C2.1,51.85,0,46.5,0,39.85s2.09-11.95,6.26-16.09c4.17-4.14,9.14-6.22,14.9-6.22,2.82,0,5.36.54,7.63,1.63,2.26,1.09,3.95,2.51,5.07,4.28v-2.73c0-.53.19-.97.57-1.32.38-.35.81-.53,1.28-.53h8.91c.53,0,.97.18,1.32.53.35.35.53.79.53,1.32v41.27c0,6.05-2.09,10.93-6.26,14.64-4.17,3.7-9.85,5.55-17.02,5.55-5.64,0-10.45-1.19-14.42-3.57-3.97-2.38-6.45-5.57-7.45-9.57-.24-1,.06-1.62.88-1.85l9.26-2.65c1.06-.18,1.79.12,2.2.88.59,1.59,1.7,2.95,3.35,4.1,1.65,1.15,3.82,1.72,6.53,1.72ZM12.87,39.85c0,3.06,1,5.6,3,7.63,2,2.03,4.47,3.04,7.41,3.04s5.5-1.01,7.5-3.04c2-2.03,3-4.57,3-7.63s-1-5.52-3-7.58c-2-2.06-4.5-3.09-7.5-3.09s-5.41,1.03-7.41,3.09c-2,2.06-3,4.58-3,7.58Z"/>
      <path class="cls-1" d="M64.72,61.72c-3.82,0-6.64-.97-8.46-2.91-1.82-1.94-2.73-4.55-2.73-7.85V1.94c0-.53.18-.98.53-1.37.35-.38.82-.57,1.41-.57h8.82c.59,0,1.06.19,1.41.57.35.38.53.84.53,1.37v46.47c0,.82.23,1.49.71,1.98.47.5,1.12.75,1.94.75h2.73c1.23,0,1.85.62,1.85,1.85v6.35c0,1.59-.82,2.38-2.47,2.38h-6.26Z"/>
      <path class="cls-1" d="M82.26,56.43c-4.53-4.35-6.79-9.7-6.79-16.05s2.26-11.74,6.79-16.18c4.53-4.44,10.02-6.66,16.49-6.66s11.98,2.21,16.53,6.61c4.55,4.41,6.83,9.82,6.83,16.22s-2.26,11.7-6.79,16.05c-4.53,4.35-10.05,6.53-16.58,6.53s-11.96-2.17-16.49-6.53ZM91.35,32.58c-2,2.15-3,4.72-3,7.71s1,5.56,3,7.67c2,2.12,4.47,3.17,7.41,3.17s5.5-1.06,7.5-3.17c2-2.12,3-4.67,3-7.67s-1-5.57-3-7.71c-2-2.15-4.5-3.22-7.5-3.22s-5.41,1.07-7.41,3.22Z"/>
      <path class="cls-1" d="M140.02,23.1c1.12-1.65,2.82-2.98,5.11-4.01s4.82-1.54,7.58-1.54c5.76,0,10.71,2.09,14.86,6.26,4.14,4.17,6.22,9.64,6.22,16.4s-2.1,12.17-6.3,16.4c-4.2,4.23-9.21,6.35-15.03,6.35-2.65,0-5.08-.5-7.32-1.5-2.23-1-3.97-2.35-5.2-4.06v2.47c0,.53-.18.97-.53,1.32s-.79.53-1.32.53h-8.82c-.59,0-1.06-.18-1.41-.53s-.53-.79-.53-1.32V1.85c0-.53.18-.97.53-1.32.35-.35.82-.53,1.41-.53h8.91c.47,0,.9.18,1.28.53.38.35.57.79.57,1.32v21.25ZM142.97,32.58c-2.03,2.15-3.04,4.72-3.04,7.71s1.01,5.57,3.04,7.72c2.03,2.15,4.51,3.22,7.45,3.22s5.51-1.07,7.54-3.22c2.03-2.15,3.04-4.72,3.04-7.72s-1.01-5.57-3.04-7.71c-2.03-2.15-4.54-3.22-7.54-3.22s-5.42,1.07-7.45,3.22Z"/>
      <path class="cls-1" d="M183.53,56.61c-4.26-4.23-6.39-9.7-6.39-16.4s2.13-12.15,6.39-16.36c4.26-4.2,9.3-6.3,15.12-6.3,2.76,0,5.25.54,7.45,1.63,2.21,1.09,3.84,2.48,4.89,4.19v-2.65c0-.53.19-.98.57-1.37.38-.38.81-.57,1.28-.57h8.91c.53,0,.97.19,1.32.57.35.38.53.84.53,1.37v39.15c0,.53-.18.97-.53,1.32s-.79.53-1.32.53h-8.91c-.47,0-.9-.18-1.28-.53-.38-.35-.57-.79-.57-1.32v-2.73c-1.06,1.71-2.69,3.1-4.89,4.19-2.2,1.09-4.72,1.63-7.54,1.63-5.76,0-10.77-2.12-15.03-6.35ZM193.01,32.58c-2,2.15-3,4.72-3,7.71s1,5.57,3,7.72c2,2.15,4.5,3.22,7.5,3.22s5.5-1.07,7.5-3.22c2-2.15,3-4.72,3-7.72s-1-5.57-3-7.71c-2-2.15-4.5-3.22-7.5-3.22s-5.5,1.07-7.5,3.22Z"/>
      <path class="cls-1" d="M241.86,61.72c-3.82,0-6.64-.97-8.46-2.91-1.82-1.94-2.73-4.55-2.73-7.85V1.94c0-.53.18-.98.53-1.37.35-.38.82-.57,1.41-.57h8.82c.59,0,1.06.19,1.41.57.35.38.53.84.53,1.37v46.47c0,.82.23,1.49.71,1.98.47.5,1.12.75,1.94.75h2.73c1.23,0,1.85.62,1.85,1.85v6.35c0,1.59-.82,2.38-2.47,2.38h-6.26Z"/>
      <path class="cls-1" d="M289.11,17.55c3.88,0,7.3.54,10.27,1.63,2.97,1.09,5.25,2.37,6.83,3.83,1.41,1.12,1.47,2.41.18,3.88l-3.26,3.7c-1.06,1.23-2.47,1.32-4.23.26-3.47-2.29-6.73-3.44-9.79-3.44-1.65,0-2.98.31-4.01.93-1.03.62-1.54,1.37-1.54,2.25,0,1.71,1.64,2.88,4.94,3.53l6.79,1.32c8.88,1.71,13.31,6.03,13.31,12.96,0,4.23-1.79,7.71-5.38,10.45-3.59,2.73-8.26,4.1-14.02,4.1-6.35,0-11.79-1.59-16.31-4.76-3.65-2.53-4.26-4.73-1.85-6.61l3.88-3c1.41-1.06,2.85-.97,4.32.26,3.29,2.88,6.76,4.32,10.4,4.32,1.88,0,3.33-.35,4.36-1.06,1.03-.71,1.54-1.56,1.54-2.56s-.48-1.78-1.46-2.34c-.97-.56-2.54-1.04-4.72-1.46l-7.05-1.5c-3.59-.71-6.42-2.14-8.51-4.32-2.09-2.17-3.13-4.97-3.13-8.38,0-4,1.68-7.33,5.03-10.01s7.82-4.01,13.4-4.01Z"/>
      <path class="cls-1" d="M317.86,48.94v-19.49h-5.64c-.53,0-.97-.19-1.32-.57-.35-.38-.53-.84-.53-1.37v-6.79c0-.53.18-.98.53-1.37.35-.38.79-.57,1.32-.57h5.64V7.41c0-.59.19-1.06.57-1.41.38-.35.84-.53,1.37-.53h8.99c.47,0,.9.18,1.28.53.38.35.57.82.57,1.41v11.38h12.08c.53,0,1,.19,1.41.57.41.38.62.84.62,1.37v6.79c0,.47-.21.91-.62,1.32s-.88.62-1.41.62h-12.08v16.49c0,1.88.44,3.17,1.32,3.88.88.71,1.88,1.06,3,1.06,1.18,0,2.47-.41,3.88-1.23,1.59-1,2.79-.88,3.62.35l3.09,4.94c.71,1.12.62,2.18-.26,3.17-2.94,3.06-7.17,4.58-12.7,4.58-4.12,0-7.6-1.15-10.45-3.44-2.85-2.29-4.28-5.73-4.28-10.32Z"/>
      <path class="cls-1" d="M353.96,56.61c-4.26-4.23-6.39-9.7-6.39-16.4s2.13-12.15,6.39-16.36c4.26-4.2,9.3-6.3,15.12-6.3,2.76,0,5.25.54,7.45,1.63,2.21,1.09,3.84,2.48,4.89,4.19v-2.65c0-.53.19-.98.57-1.37.38-.38.81-.57,1.28-.57h8.91c.53,0,.97.19,1.32.57.35.38.53.84.53,1.37v39.15c0,.53-.18.97-.53,1.32s-.79.53-1.32.53h-8.91c-.47,0-.9-.18-1.28-.53-.38-.35-.57-.79-.57-1.32v-2.73c-1.06,1.71-2.69,3.1-4.89,4.19-2.2,1.09-4.72,1.63-7.54,1.63-5.76,0-10.77-2.12-15.03-6.35ZM363.44,32.58c-2,2.15-3,4.72-3,7.71s1,5.57,3,7.72c2,2.15,4.5,3.22,7.5,3.22s5.5-1.07,7.5-3.22c2-2.15,3-4.72,3-7.72s-1-5.57-3-7.71c-2-2.15-4.5-3.22-7.5-3.22s-5.5,1.07-7.5,3.22Z"/>
      <path class="cls-1" d="M441.74,52.99c-1.88,3-4.51,5.41-7.89,7.23-3.38,1.82-7.22,2.73-11.51,2.73-6.53,0-12.01-2.17-16.44-6.53-4.44-4.35-6.66-9.73-6.66-16.14s2.22-11.8,6.66-16.18c4.44-4.38,9.92-6.57,16.44-6.57,4.29,0,8.13.91,11.51,2.73,3.38,1.82,6.01,4.23,7.89,7.23.35.65.41,1.29.18,1.94-.24.65-.62,1.15-1.15,1.5l-5.11,3.88c-1.35,1.06-2.65.85-3.88-.62-2.76-3.23-5.85-4.85-9.26-4.85-3,0-5.48,1.06-7.45,3.17-1.97,2.12-2.95,4.7-2.95,7.76s.98,5.63,2.95,7.72c1.97,2.09,4.45,3.13,7.45,3.13,3.47,0,6.55-1.62,9.26-4.85,1.17-1.41,2.47-1.62,3.88-.62l5.11,3.88c1.35,1,1.68,2.15.97,3.44Z"/>
      <path class="cls-1" d="M459.38,59.87c0,.53-.18.97-.53,1.32-.35.35-.79.53-1.32.53h-8.91c-.53,0-.99-.18-1.37-.53-.38-.35-.57-.79-.57-1.32V1.85c0-.53.19-.97.57-1.32.38-.35.84-.53,1.37-.53h8.91c.53,0,.97.18,1.32.53.35.35.53.79.53,1.32v31.92h3.09l9.79-13.49c.59-1,1.44-1.5,2.56-1.5h9.52c.88,0,1.46.32,1.72.97.26.65.13,1.35-.4,2.12l-12.26,15.96,14.28,20.72c.53.76.63,1.49.31,2.16-.32.68-.98,1.01-1.98,1.01h-9.96c-1.12,0-2-.53-2.65-1.59l-10.67-16.14h-3.35v15.87Z"/>
    </g>
  </g>
</svg>